<svg width="134" height="32" viewBox="0 0 134 32" fill="none" xmlns="http://www.w3.org/2000/svg">
<path d="M48 0C49.1045 0 49.9999 0.89543 49.9999 2V18C49.9999 18.8348 49.5736 19.5699 48.9268 19.9999C49.5736 20.4298 49.9999 21.1651 49.9999 22V32H46V22H44V32H40L40 0H48ZM59.9999 0C61.1044 0 61.9999 0.89543 61.9999 2V20C61.9999 21.1046 61.1044 22 59.9999 22H55.9999V28H57.9999V24H61.9999V30C61.9999 31.1046 61.1044 32 59.9999 32H53.9999C52.8954 32 51.9999 31.1046 51.9999 30V2C51.9999 0.89543 52.8954 0 53.9999 0H59.9999ZM71.9998 0C73.1044 0 73.9998 0.89543 73.9998 2V32H69.9998V22H67.9998V32H63.9999V2C63.9999 0.89543 64.8953 0 65.9999 0H71.9998ZM83.9997 0C85.1043 0 85.9997 0.89543 85.9997 2V12H81.9998V4H79.9998V14H83.9997C85.1043 14 85.9997 14.8954 85.9997 16V30C85.9997 31.1046 85.1043 32 83.9997 32H77.9998C76.8952 32 75.9998 31.1046 75.9998 30V20H79.9998V28H81.9998V18H77.9998C76.8952 18 75.9998 17.1046 75.9998 16V2C75.9998 0.89543 76.8952 0 77.9998 0H83.9997ZM95.9997 0C97.1042 0 97.9997 0.89543 97.9997 2V30C97.9997 31.1046 97.1042 32 95.9997 32H89.9997C88.8952 32 87.9997 31.1046 87.9997 30V2C87.9997 0.89543 88.8952 0 89.9997 0H95.9997ZM108 0C109.104 0 110 0.89543 110 2V32H106V4H104V32H99.9997V0H108ZM120 0C121.104 0 122 0.89543 122 2V32H118V22H116V32H112V2C112 0.89543 112.895 0 114 0H120ZM127.999 28H129.999V24H133.999V30C133.999 31.1046 133.104 32 131.999 32H126C124.895 32 124 31.1046 124 30V0H127.999V28ZM91.9997 28H93.9997V4H91.9997V28ZM44 18H46V4H44V18ZM55.9999 18H57.9999V4H55.9999V18ZM67.9998 18H69.9998V4H67.9998V18ZM116 18H118V4H116V18Z" fill="#181D1F"/>
<path d="M20.0713 0.5V4.69043H27.3096V11.9277H31.5V20.0713H27.3096V27.3105H20.0713V31.5H11.9287V27.3105H4.69043V20.0713H0.5V11.9277H4.69043V4.69043H11.9287V0.5H20.0713Z" fill="url(#paint0_linear_360_3683)" stroke="url(#paint1_linear_360_3683)"/>
<defs>
<linearGradient id="paint0_linear_360_3683" x1="12" y1="4" x2="20.7619" y2="28.381" gradientUnits="userSpaceOnUse">
<stop stop-color="#FA8989"/>
<stop offset="0.982731" stop-color="#F97171"/>
</linearGradient>
<linearGradient id="paint1_linear_360_3683" x1="2.85714" y1="1.71429" x2="22.4762" y2="36.5714" gradientUnits="userSpaceOnUse">
<stop offset="0.0723454" stop-color="#FFADAD"/>
<stop offset="0.514423" stop-color="#FF8C8C"/>
<stop offset="0.997606" stop-color="#E89191"/>
</linearGradient>
</defs>
</svg>
